<svg viewBox="0 0 162 64" xmlns="http://www.w3.org/2000/svg" aria-labelledby="logo-title"><path d="M10.281 19.255a15.268 15.268 0 019.147 2.872l-.993-2.44h9.927l3.46 12.046.794 2.729s.383-1.436.766-2.714l3.489-12.062h9.926l-.936 2.47a15.254 15.254 0 019.175-2.872c.483 0 .965 0 1.419.072L51.364 0 0 13.928l2.014 7.61a15.453 15.453 0 018.267-2.283m44.939 7.824a4.949 4.949 0 00-3.562 1.43 4.51 4.51 0 00-1.331 3.468c-.098 1.734.814 3.379 2.37 4.274a5.101 5.101 0 005.061 0c1.557-.895 2.469-2.54 2.371-4.274a5.993 5.993 0 00-.114-1.143l-.17-.612c-.635-1.918-2.522-3.2-4.624-3.143m-40.502 4.954a4.61 4.61 0 00-1.34-3.51 4.92 4.92 0 00-3.56-1.446 4.92 4.92 0 00-3.562 1.446 4.612 4.612 0 00-1.34 3.51 4.532 4.532 0 001.338 3.492 4.838 4.838 0 003.563 1.396 4.838 4.838 0 003.563-1.396 4.532 4.532 0 001.338-3.492M54.97 45.25c-7.17 0-13.121-3.995-14.255-10.788L36.62 44.846h-8.05l-4.067-10.329C23.342 41.282 17.42 45.25 10.25 45.25c-.554 0-1.107-.028-1.658-.084L13.72 64l51.324-13.516-1.97-7.253a16.47 16.47 0 01-8.105 2.005M74.188 34.31c-.102 1.358.421 2.693 1.44 3.672 1.02.978 2.439 1.508 3.903 1.458 3.989 0 5.016-2.282 6.147-2.282.322.024.62.17.824.401.205.232.3.532.262.83 0 1.383-3.72 3.457-7.263 3.457-5.79 0-8.32-4.149-8.32-8.615 0-4.467 3.067-8.616 8.157-8.616s7.798 4.149 7.798 8.2c0 .983-.372 1.494-1.667 1.494H74.19zm9.957-2.089c0-2.42-1.488-5.2-4.807-5.2-3.721-.124-5.06 2.628-5.15 5.2h9.957zm4.275-6.051c0-.766.627-1.387 1.4-1.387.773 0 1.4.62 1.4 1.387v.666a5.86 5.86 0 014.706-2.22c2.633 0 5.938 1.651 5.938 6.41v9.377c0 .767-.627 1.388-1.4 1.388a1.394 1.394 0 01-1.401-1.388v-9.156a3.915 3.915 0 00-1.872-3.673 3.995 3.995 0 00-4.154 0 3.915 3.915 0 00-1.873 3.673v9.212c0 .766-.627 1.387-1.4 1.387-.773 0-1.4-.62-1.4-1.387l.056-14.289zm18.881 8.14c-.102 1.358.42 2.693 1.437 3.672 1.016.978 2.43 1.508 3.891 1.458 3.978 0 5.002-2.282 6.13-2.282.321.024.618.17.822.401.204.232.299.532.261.83 0 1.383-3.71 3.457-7.242 3.457-5.774 0-8.282-4.149-8.282-8.615 0-4.467 3.058-8.616 8.118-8.616 5.061 0 7.837 4.149 7.837 8.229 0 .981-.371 1.493-1.663 1.493l-11.309-.028zm10.003-2.089c0-2.42-1.484-5.2-4.793-5.2-3.71-.124-5.032 2.628-5.135 5.2h9.928zm5.423-6.048c0-.77.65-1.394 1.451-1.394.802 0 1.452.624 1.452 1.394v1.395h.072c.724-1.57 2.227-2.677 3.99-2.943a1.49 1.49 0 011.142.345c.31.267.487.65.484 1.05 0 .795-.595 1.31-1.828 1.534-2.414.372-4.106 2.488-3.86 4.824v8.074c0 .77-.65 1.394-1.452 1.394-.801 0-1.45-.624-1.45-1.394V26.173zm23.302 14.787c0 5.145-3.094 8.27-7.735 8.27-2.926 0-6.568-1.704-6.568-3.168a1.202 1.202 0 01.298-.928c.225-.252.547-.395.883-.393 1.294 0 2.56 2.003 5.626 2.003 3.614 0 4.669-2.842 4.669-5.328v-1.492a4.926 4.926 0 01-4.36 2.472c-4.824 0-7.524-4.263-7.524-8.853s2.7-8.852 7.524-8.852a5.815 5.815 0 014.36 2.174v-.824a1.428 1.428 0 01.45-1.047c.29-.27.677-.406 1.069-.374.366 0 .715.152.966.42.25.27.38.632.356 1l-.014 14.92zm-7.257-1.036c3.488 0 4.711-3.453 4.711-6.38 0-2.928-1.223-6.38-4.711-6.38-3.488 0-4.683 3.452-4.683 6.38 0 2.927 1.223 6.38 4.697 6.38h-.014zm10.117-12.529a4.864 4.864 0 01-.389-1.567 1.25 1.25 0 01.401-.875c.246-.227.573-.348.909-.337a1.437 1.437 0 011.439 1.083l4.03 11.901 3.958-11.9a1.437 1.437 0 011.439-1.084A1.276 1.276 0 01162 25.828a5.062 5.062 0 01-.403 1.596l-7.34 20.723a1.437 1.437 0 01-1.44 1.083 1.276 1.276 0 01-1.309-1.211 4.412 4.412 0 01.417-1.597l1.857-4.86-4.893-14.167z" fill="#19822c"/></svg>