<svg xmlns="http://www.w3.org/2000/svg" viewBox="0 0 244.39 79.11"><path d="M183.86,381.81c.74.51,1.52,1.2,2.34,1.88a2,2,0,0,0,1.84,0s1.75-.81,2.56-1.16c2-.84,2.92-.17,2.11,1.72a21.09,21.09,0,0,1-1.89,3.16c-.26.37-.59,1.11-.09,1.58s3.08,2.58,3.92,3.37c2.14,2,1.47,3.67-1.11,3.41-.83-.08-4.33-.33-6.14-.73-.65-.15-1-.15-1.56.73A43,43,0,0,1,183,400c-1.47,1.77-3,1.63-2.67-1.07.2-1.57.45-3.89.53-4.45s0-1.23-.65-1.32a27.9,27.9,0,0,1-3.22-.52c-2.11-.54-2-1.28-.72-2.61a33.83,33.83,0,0,1,3.36-2.69c1.11-.92,1-2.71,1.06-4.14.05-2.79,1.06-2.84,3.2-1.35" transform="translate(-175.32 -380.84)" fill="#e20e18"/><path d="M209.81,406.16c-5.17,1.87-7.47,4.13-2.37,8,6.86,5.26,14.54,9.27,16.13,10.51,2.8,2.17,3.66,3.14,1.81,6.72-.33.62-1.79,3-2.29,3.82-1.88,3.1-3.59,4.44,1.58,7.36a84.8,84.8,0,0,0,18.52,6.88c5.81,1.35,6.7-1.54,4.36-6.85a118.58,118.58,0,0,0-10.25-18.25c-3.11-4.54-3.58-4.51,1.06-7.83,3.88-2.76,6.67-4.85,9.87-7.58,6-5.1,2.61-8.13-4.17-7.84-7.58.34-24.72,1.57-34.25,5" transform="translate(-175.32 -380.84)" fill="#c7d308"/><path d="M218.71,423.43c-1-1.28-2-2.42-2.78-3.43-2.64-1.64-5.63-3.61-8.49-5.8-5.1-3.91-2.8-6.17,2.37-8,.64-.23,1.32-.46,2-.67a13,13,0,0,1,1.18-.58,81.51,81.51,0,0,0,9.08-4c3.4-2,3.45-2.66,1.94-6a44.63,44.63,0,0,0-4.63-7.27c-5.06-6.95-6.36-6.56-9.28-.8-2,3.86-4.91,10.81-6.8,14.54a3.91,3.91,0,0,1-2.28,2.31c-2.06,1-7,2.27-10.19,3.2a61.4,61.4,0,0,0-9.76,3.8c-3.52,1.78-4.93,4.53.74,7.77,4.92,2.81,10.28,5.2,12.92,7.62,1.79,1.65,1.76,1.65,1,4.12-.62,2-5.29,16.45-6.93,23.11s.93,8.58,6.39,4.73c6.47-4.57,16.48-13.94,23.22-21.36,6-6.62,4.52-7.54.27-13.22" transform="translate(-175.32 -380.84)" fill="#035a38"/><path d="M343.81,430.7c-5.51-1.17-8.68-1.67-8.68-4.59,0-2.59,2.5-4,6.93-4a16,16,0,0,1,8.48,2.49,4.23,4.23,0,0,0,6.54-3.55,4.17,4.17,0,0,0-1.17-2.89c-2.44-2.55-7.29-4.32-14.6-4.32-10.36,0-17,5.26-17,13.2,0,9.27,8.77,11.11,14.36,12.36s8.77,1.67,8.77,4.76c0,2.59-2.58,3.93-7.18,3.93a19.22,19.22,0,0,1-9.89-2.6v0A4.16,4.16,0,0,0,324,449a4.14,4.14,0,0,0,1.28,3l0,0c2.64,2.54,7.8,4.32,15.6,4.32,11.19,0,18-5,18-13.2,0-9.27-9.27-11.19-15-12.45" transform="translate(-175.32 -380.84)" fill="#035a38"/><path d="M312.82,400.55c-4.09,0-6.6,2.25-6.6,5.93s2.51,6,6.6,6,6.52-2.26,6.52-6-2.43-5.93-6.52-5.93" transform="translate(-175.32 -380.84)" fill="#035a38"/><path d="M318.54,424.26a5.76,5.76,0,0,0-11.52,0v26.13a5.76,5.76,0,0,0,11.52,0V424.26Z" transform="translate(-175.32 -380.84)" fill="#035a38"/><path d="M382.76,413.75c-9.68,0-15.46,3-17.56,6.78a5.11,5.11,0,0,0,4.44,7.58,4.9,4.9,0,0,0,3.87-1.8,10.44,10.44,0,0,1,8.5-3.71c5.43,0,8.36,2.84,8.36,8.1H389c-17.87.26-26.23,4.51-26.23,13.87,0,6.93,5.18,11.78,13.7,11.78,6.1,0,11.19-2.6,14.12-6.85.66,4.51,3.25,6.51,6.93,6.51,2.25,0,4.42-.75,4.42-1.34V430.54c0-10.94-6.34-16.79-19.21-16.79m7.61,25.72c0,5.35-4.1,9.19-9.94,9.19-3.93,0-6.35-1.92-6.35-4.93,0-4.42,4.84-6.26,14.11-6.51l2.18-.08Z" transform="translate(-175.32 -380.84)" fill="#035a38"/><path d="M284.19,422.77c-6.68-1.5-11.52-1.92-11.52-6.6,0-3.92,3.42-6.43,9.35-6.43a19.07,19.07,0,0,1,9.51,2.65,5.3,5.3,0,0,0,2.67.77,5.17,5.17,0,0,0,2.87-9.47c-3.22-2.08-8.27-3.55-15.21-3.55-12.95,0-21.05,6.68-21.05,16.7,0,11,8.85,14.37,17.54,16.29,6.34,1.42,11.77,2.17,11.77,7,0,4.18-3.42,6.6-9.85,6.6a21.73,21.73,0,0,1-11.46-3.43h0a5.11,5.11,0,0,0-6.39,8h.05c3.21,2.86,9.07,5.09,17.87,5.09,14.28,0,22.13-6.35,22.13-17.13,0-10.19-8.52-14.28-18.29-16.45" transform="translate(-175.32 -380.84)" fill="#035a38"/><path d="M419.7,450.34v-41c0-7.42-3.75-9.21-7.17-9.21-2.28,0-4.33.89-4.33,1.3v48.93a5.76,5.76,0,1,0,11.51,0Z" transform="translate(-175.32 -380.84)" fill="#035a38"/></svg>